PathFileType	4	(X/Y/Z)	walk-thru1-5-TP.trc
DataRate	CameraRate	NumFrames	NumMarkers	Units	OrigDataRate	OrigDataStartFrame	OrigNumFrames
120.00	120.00	       4	60	mm	120.00	374	       498
Frame#	Time	Top.Head			Front.Head			Rear.Head			Jaw			C7			R.Clavicle			L.Clavicle			R.Shoulder			L.Shoulder			R.Scapula			L.Scapula			R.Scap.Inf			R.Biceps.Lateral			R.Elbow			R.Elbow.Medial			R.Forearm			R.Ulna			R.Radius			R.Wrist			R.Thumb.M1			R.Thumb.M2			R.Thumb.M3			R.Finger3.M1			R.Finger3.M2			R.Finger3.M3			L.Biceps.Lateral			L.Elbow			L.Elbow.Medial			L.Forearm			L.Ulna			L.Radius			L.Wrist			L.Thumb.M1			L.Thumb.M2			L.Thumb.M3			L.Finger3.M1			L.Finger3.M2			L.Finger3.M3			V.Sacral			R.ASIS			L.ASIS			R.Thigh			R.Thigh.Front			R.Knee			R.Knee.Medial			R.Shank			R.Ankle			R.Ankle.Medial			R.Heel			R.Toe			R.MedFoot			L.Thigh			L.Knee			L.Knee.Medial			L.Shank			L.Ankle			L.Ankle.Medial			L.Heel			L.Toe			L.MedFoot			V_mid_ASIS			V_R_Knee_JC			V_L_Knee_JC			V_R_Elbow_JC			V_L_Elbow_JC			V_R_Ankle_JC			V_L_Ankle_JC			V_R_Wrist_JC			V_L_Wrist_JC			V_R_ScaTrpz_1stMC_JC			V_R_1stMC_1stPP_JC			V_R_1stPP_1stDP_JC			V_R_LunCap_3rdMC_JC			V_R_3rdMC_3rdPP_JC			V_R_3rdPP_3rdMP_JC			V_R_3rdMP_3rdDP_JC			V_L_ScaTrpz_1stMC_JC			V_L_1stMC_1stPP_JC			V_L_1stPP_1stDP_JC			V_L_LunCap_3rdMC_JC			V_L_3rdMC_3rdPP_JC			V_L_3rdPP_3rdMP_JC			V_L_3rdMP_3rdPP_JC			V_ROOT_JC			V_R_Hip_JC			V_L_Hip_JC			V_R_GlenHum_JC			V_L_GlenHum_JC			V_ForeHead_Ctr			V_Vertex			V_Sagit_Lambdoid_Suture			V_R_FrontoTemp			V_L_FrontoTemporal			V_R_ParietalOccip			V_L_ParietalOcciptal			V_R_Temporal			V_L_Temporal			V_mid_FrontRearHead			V_mid_RLGlenHumCtrs			V_C7_vert			V_C1_vert			V_Mid_Hip			
		X1	Y1	Z1	X2	Y2	Z2	X3	Y3	Z3	X4	Y4	Z4	X5	Y5	Z5	X6	Y6	Z6	X7	Y7	Z7	X8	Y8	Z8	X9	Y9	Z9	X10	Y10	Z10	X11	Y11	Z11	X12	Y12	Z12	X13	Y13	Z13	X14	Y14	Z14	X15	Y15	Z15	X16	Y16	Z16	X17	Y17	Z17	X18	Y18	Z18	X19	Y19	Z19	X20	Y20	Z20	X21	Y21	Z21	X22	Y22	Z22	X23	Y23	Z23	X24	Y24	Z24	X25	Y25	Z25	X26	Y26	Z26	X27	Y27	Z27	X28	Y28	Z28	X29	Y29	Z29	X30	Y30	Z30	X31	Y31	Z31	X32	Y32	Z32	X33	Y33	Z33	X34	Y34	Z34	X35	Y35	Z35	X36	Y36	Z36	X37	Y37	Z37	X38	Y38	Z38	X39	Y39	Z39	X40	Y40	Z40	X41	Y41	Z41	X42	Y42	Z42	X43	Y43	Z43	X44	Y44	Z44	X45	Y45	Z45	X46	Y46	Z46	X47	Y47	Z47	X48	Y48	Z48	X49	Y49	Z49	X50	Y50	Z50	X51	Y51	Z51	X52	Y52	Z52	X53	Y53	Z53	X54	Y54	Z54	X55	Y55	Z55	X56	Y56	Z56	X57	Y57	Z57	X58	Y58	Z58	X59	Y59	Z59	X60	Y60	Z60	

374	3.108	-988.74011	-56.23736	1758.61938	-1074.00647	-30.91836	1627.38171	-849.06384	-64.68351	1699.86951	-968.13531	-31.39972	1464.68921	-742.88947	-47.76049	1574.30676	-833.43378	77.05421	1499.62878	-846.80634	-164.22452	1473.85974	-777.68732	181.11104	1499.80347	-804.33398	-269.19269	1472.07007	-669.09906	48.98566	1492.33826	-674.02887	-140.99405	1473.73340	-637.86273	56.55950	1401.96448	-734.92273	222.05595	1365.38831	-662.96509	260.22690	1187.32629	-668.45709	162.47519	1171.57117	-755.65704	263.88113	1120.16895	-696.62561	274.52695	985.23273	-809.38928	269.47507	956.83600	-810.67847	313.93286	923.51086	-826.75171	260.68774	913.84863	-824.61096	222.18446	874.65515	-819.79755	212.12572	824.26605	-820.31152	310.69626	837.82617	-779.77039	254.22269	794.95654	-756.41675	215.46574	839.62280	-742.24323	-299.39194	1330.35706	-672.92462	-316.98788	1165.50098	-663.50446	-222.57864	1137.35498	-757.53546	-326.32532	1087.44275	-701.56195	-350.86639	980.33356	-801.39185	-340.88187	930.75879	-779.28003	-381.82693	897.96881	-829.14032	-345.63568	878.10327	-853.05865	-324.16415	833.96387	-862.34943	-328.32037	784.22375	-808.10297	-399.79630	803.12622	-815.93231	-373.07513	743.27722	-814.98517	-312.99075	740.94464	-616.04382	-28.14499	1123.08228	-800.76666	170.04822	1069.49963	-809.81122	-181.48468	1062.54260	-840.90637	186.17659	697.54828	-938.51843	119.45193	593.32617	-883.86139	177.99600	538.04919	-883.45801	59.20960	527.36249	-804.68671	145.68150	328.65164	-619.00244	177.22377	165.09415	-656.65198	76.09133	167.93462	-555.93689	118.68989	150.24829	-754.42804	152.81671	62.46403	-727.80353	116.26863	112.35252	-791.48700	-178.55696	672.65833	-801.55225	-151.31189	529.77081	-794.25433	-44.20084	512.23169	-795.84009	-105.36135	320.21054	-680.56055	-109.78918	79.40649	-734.63501	-21.12534	110.76623	-644.11731	-36.85628	47.87435	-862.61469	-108.11363	41.63559	-802.12500	-63.16176	85.06380																																																																																																																															
375	3.117	-993.53723	-56.99007	1757.91125	-1077.23975	-31.27635	1627.40906	-853.04333	-63.59326	1700.41663	-971.19989	-32.49751	1464.81531	-749.05927	-46.27195	1574.03198	-838.61847	76.75121	1499.74402	-852.10602	-165.01105	1473.45825	-781.82312	180.22568	1499.35779	-808.69257	-270.52594	1472.13647	-674.65070	47.27455	1492.54395	-679.10004	-142.59590	1473.64001	-642.44611	55.06585	1401.95728	-737.50146	221.19142	1365.82800	-666.59381	259.08105	1187.38147	-671.85754	160.70352	1171.40833	-758.95117	263.68985	1119.58093	-698.50354	272.84494	985.37415	-811.59021	270.10025	955.81775	-811.93921	313.92239	923.78418	-829.39783	261.53854	914.14294	-831.17517	225.93195	874.77802	-826.89453	213.69313	825.13452	-822.60004	311.14560	837.92761	-784.54944	252.41145	795.18909	-762.71991	211.55667	839.86469	-749.11981	-300.69458	1330.95276	-678.14893	-317.66367	1165.74634	-671.29163	-225.43736	1137.57019	-763.91309	-327.34860	1087.35632	-709.37048	-353.39957	981.02704	-810.33405	-342.60046	932.04602	-786.89227	-383.66208	899.41815	-838.23010	-348.16803	879.44055	-861.64856	-327.50665	835.64996	-872.37683	-331.40546	785.85382	-817.38397	-403.08551	804.11340	-828.04376	-375.66403	744.36761	-824.94800	-315.53976	742.35449	-620.57080	-28.84553	1123.53638	-804.81073	169.67082	1069.45654	-814.53113	-182.54695	1062.83557	-848.43115	185.62807	700.27155	-946.44543	118.06675	595.34631	-891.52777	177.74393	539.70300	-891.74591	58.92496	529.11255	-817.55908	145.16090	328.90308	-635.61169	178.08185	162.05878	-673.08124	77.09650	165.23741	-573.66119	117.60641	144.76472	-773.81873	152.80997	61.74770	-745.66882	117.08333	110.86283	-794.23669	-178.42377	672.75562	-802.99799	-151.84108	529.58124	-794.15125	-43.85808	511.93231	-796.74371	-105.13420	320.03302	-681.27734	-109.34242	79.38832	-734.63501	-21.12534	110.76623	-644.49731	-37.04856	47.95620	-862.80859	-107.72156	41.61020	-802.31750	-62.06966	84.93419																																																																																																																															
376	3.125	-998.45190	-57.48979	1757.31873	-1083.25293	-30.95599	1627.31494	-858.24353	-65.13632	1700.64990	-977.33246	-32.34314	1464.97620	-753.39453	-50.77068	1573.04663	-843.00690	76.96651	1499.66589	-857.85754	-165.43137	1473.75439	-788.53156	180.36441	1499.71912	-814.94775	-270.78534	1471.58569	-680.55011	47.15656	1492.77124	-684.06506	-142.46713	1474.05481	-646.58246	54.57196	1402.45142	-742.46387	220.51329	1365.21619	-669.58459	257.81631	1188.09290	-676.20868	159.69751	1172.51819	-762.99231	263.06168	1120.89185	-700.68689	270.88235	986.05603	-814.62317	270.07413	955.72662	-812.40796	314.33942	923.42322	-833.46399	262.75949	914.70575	-836.24164	227.65039	874.64203	-835.24377	214.98987	824.88745	-824.91907	311.96494	838.09656	-789.18896	250.61960	795.77319	-767.78082	208.62756	839.22528	-754.46820	-300.37848	1330.37842	-684.30884	-319.59409	1165.83972	-677.64117	-225.89325	1137.10046	-770.60059	-329.07886	1088.89307	-716.85596	-354.36945	982.07361	-818.05017	-344.55774	932.92682	-795.03839	-385.38321	900.00220	-845.72675	-350.27313	881.41101	-871.89069	-329.19269	837.58136	-882.83795	-333.80502	788.08813	-827.01636	-405.47260	805.63715	-836.88635	-378.51221	746.66425	-836.46716	-317.74017	743.35150	-624.84851	-29.59362	1123.53674	-810.99805	169.37486	1070.88269	-819.17834	-182.44348	1062.58997	-855.07941	184.39610	701.17700	-954.02368	117.85406	597.81458	-899.75989	177.41634	541.41632	-899.70496	59.82044	530.13672	-832.94757	145.24550	329.09256	-653.02881	178.34167	157.84566	-691.84912	76.65766	161.19385	-591.10260	119.18945	137.90009	-794.32361	152.60793	61.90146	-763.98724	117.55291	109.59523	-798.04761	-177.95860	672.62860	-804.82825	-151.65594	529.49878	-795.98627	-44.05859	511.52893	-797.98407	-104.26173	319.73843	-681.37390	-109.14629	79.38621	-734.52368	-20.44533	110.61575	-644.00989	-36.43050	47.83402	-862.64392	-107.98756	41.53725	-802.30640	-61.93479	84.98225																																																																																																																															
377	3.133	-1005.18787	-57.87596	1758.78027	-1088.05237	-31.93292	1627.16125	-865.39008	-67.58047	1699.43042	-983.60101	-31.63371	1465.30566	-759.34479	-50.72147	1573.68762	-847.58893	75.72730	1499.84692	-862.38928	-166.29788	1473.39441	-791.57831	179.13664	1499.67261	-819.42303	-270.98343	1471.94885	-685.52374	45.43443	1493.13525	-689.86932	-142.72406	1473.48572	-652.32660	53.97630	1403.07239	-746.44678	220.21800	1365.44434	-673.48364	255.64249	1187.73767	-680.06342	158.68532	1172.74573	-766.55835	261.85129	1120.24768	-703.32672	269.23181	985.98242	-816.71417	270.67746	955.86035	-814.96027	314.17999	923.24994	-836.86871	263.44403	914.50867	-842.77649	228.94098	874.08527	-842.73041	218.22522	823.64636	-827.74487	313.19437	837.66486	-795.30646	250.96466	795.48395	-774.36859	208.08653	837.67963	-760.50012	-302.65283	1330.08704	-690.42102	-321.86890	1166.01233	-682.06702	-228.34399	1136.35339	-777.03784	-329.62509	1088.54333	-724.67249	-355.94794	981.62872	-825.87646	-346.30191	934.25061	-804.33698	-387.04617	901.10388	-854.50104	-352.70233	882.30206	-879.45837	-331.61169	838.24829	-891.72296	-336.48553	789.77496	-835.67700	-407.37000	807.09113	-848.01611	-380.92853	748.67078	-846.37903	-320.93277	744.63098	-629.33661	-30.05415	1123.40393	-814.66608	169.53769	1071.06421	-824.86694	-182.86053	1062.18054	-861.69904	185.28180	701.89911	-961.88843	117.25089	599.57629	-908.24023	177.32611	542.91840	-908.05249	58.09982	531.78735	-844.25513	145.58653	329.48761	-671.10272	177.40190	153.02592	-707.04803	77.81775	158.33192	-608.10931	118.66295	133.21268	-813.74866	153.86647	61.42864	-782.26758	119.00993	108.23410	-799.02197	-178.92204	672.12329	-806.20605	-151.09753	528.85876	-796.86047	-43.93382	510.55106	-799.23468	-103.78707	320.18283	-681.72192	-108.84807	79.47054	-733.90009	-20.25805	110.80910	-644.52264	-36.82331	47.83064	-862.82587	-107.94221	41.64877	-802.49384	-61.62583	84.98051																																																																																																																															
